# xmcd
#
# Track frame offsets: 
#        150
#        15625
#        30207
#        48295
#        63335
#        77457
#        99730
#        115600
#        129062
#        147412
#        160082
#        170407
#        183540
#        198352
#
# Disc length: 3096 seconds
#
# Revision: 2
# Processed by: cddbd v1.5.2PL0 Copyright (c) Steve Scherf et al.
# Submitted via: ExactAudioCopyFreeDBPlugin 1.0
#
DISCID=a60c160e
DTITLE=Various Artist - Mr. Music Country 4-98
DYEAR=1900
DGENRE=Country
TTITLE0=Travis Tritt - Where Corn Don't Grow
TTITLE1=Jeffrey Steele - A Girl Like You
TTITLE2=Hank Williams Jr - Hand Me Down
TTITLE3=Kippi Brannon - Sam Loves Joann
TTITLE4=Hillbilly Connexion with Tom Road - Down by the Railroad Track
TTITLE5=Tim Ryan - Say Goodbye to Montana
TTITLE6=Bob Woodruff - Perfect World
TTITLE7=Ranger Doug Green - Riding on the Rio
TTITLE8=Ruby Lovett - Look What Love Can Do
TTITLE9=Brandon Carter - The Writing on the Wall
TTITLE10=Jacob Lyda - They'll Make It Anyway
TTITLE11=Victoria Shaw - Wild Rose
TTITLE12=T. Jae Christian - All Her L-O-V-E's Gone
TTITLE13=Iris DeMent with Delbert McClinton - Trouble
EXTD=
EXTT0=
EXTT1=
EXTT2=
EXTT3=
EXTT4=
EXTT5=
EXTT6=
EXTT7=
EXTT8=
EXTT9=
EXTT10=
EXTT11=
EXTT12=
EXTT13=
PLAYORDER=
